<?xml version="1.0" encoding="UTF-8"?>
<svg id="Calque_2" data-name="Calque 2" xmlns="http://www.w3.org/2000/svg" viewBox="0 0 662.27 235.48">
  <defs>
    <style>
      .cls-1 {
        fill: #b5b5b7;
      }

      .cls-1, .cls-2, .cls-3, .cls-4, .cls-5, .cls-6, .cls-7, .cls-8, .cls-9, .cls-10, .cls-11, .cls-12, .cls-13 {
        stroke-width: 0px;
      }

      .cls-2 {
        fill: #084c7a;
      }

      .cls-3 {
        fill: #b3b4b5;
      }

      .cls-4 {
        fill: #b3b4b6;
      }

      .cls-5 {
        fill: #074b7a;
      }

      .cls-6 {
        fill: #84cff0;
      }

      .cls-7 {
        fill: #054a79;
      }

      .cls-8 {
        fill: #23a1dc;
      }

      .cls-9 {
        fill: #134f7d;
      }

      .cls-10 {
        fill: #014a79;
      }

      .cls-11 {
        fill: #094c7b;
      }

      .cls-12 {
        fill: #e52373;
      }

      .cls-13 {
        fill: #1b9eda;
      }
    </style>
  </defs>
  <path class="cls-5" d="M488,159.21c0-11.48.12-22.1-.08-32.73-.06-2.99.88-3.72,3.68-3.53,3.46.24,6.95.13,10.43.03,1.58-.04,2.03.51,2.03,2.05-.04,20.86-.04,41.72,0,62.58,0,1.35-.31,2.12-1.81,1.9-.1-.01-.2,0-.3,0-4.17-.02-8.76,1.05-12.4-.36-3.54-1.37-5.28-5.94-7.78-9.13-7.03-8.97-13.98-18-21.26-27.41v2.82c0,10.53-.04,21.06.04,31.59.01,1.87-.37,2.64-2.43,2.55-3.87-.17-7.75-.11-11.62-.02-1.58.04-2.04-.52-2.04-2.06.04-20.76.04-41.52,0-62.28,0-1.69.55-2.41,2.23-2.19.1.01.2,0,.3,0,4.07.03,8.54-.98,12.1.38,3.59,1.38,5.34,5.9,7.86,9.06,6.9,8.66,13.71,17.4,21.08,26.76h-.03Z"/>
  <path class="cls-7" d="M613.07,152.6c0,11.58-.1,22.67.07,33.75.04,2.67-.67,3.39-3.27,3.21-3.46-.24-6.95-.18-10.42-.02-2.03.09-2.47-.64-2.46-2.54.06-20.56.06-41.11,0-61.67,0-1.82.51-2.49,2.35-2.36,1.98.14,4.01.29,5.95-.02,4.99-.8,8.11,1.21,11.09,5.26,7.64,10.37,15.82,20.35,23.86,30.59.67-.76.33-1.67.33-2.46.03-10.23.07-20.46-.03-30.68-.02-2.05.51-2.79,2.64-2.69,3.77.16,7.55.09,11.32.02,1.43-.03,2.14.2,2.13,1.91-.05,20.95-.05,41.91,0,62.86,0,1.53-.62,1.79-1.95,1.77-3.77-.07-7.55-.07-11.32,0-1.23.03-2.04-.41-2.76-1.35-9.04-11.7-18.09-23.39-27.53-35.58h0Z"/>
  <path class="cls-10" d="M443.77,74.79c0-11.58.07-22.5-.05-33.42-.02-2.23.53-2.92,2.79-2.81,3.76.2,7.55.12,11.32.02,1.57-.04,2,.46,2,2.01-.05,20.75-.05,41.51,0,62.26,0,1.77-.62,2.29-2.21,2.05-.1-.01-.2,0-.3,0-4.17-.04-8.91,1.14-12.33-.48-3.29-1.56-5.24-5.99-7.73-9.19-6.91-8.89-13.81-17.8-21-27.08,0,11.43-.08,22.41.06,33.39.03,2.61-.48,3.65-3.32,3.42-3.55-.28-7.15-.12-10.72-.04-1.44.03-2.11-.23-2.1-1.91.06-20.85.05-41.71.01-62.56,0-1.42.44-1.91,1.86-1.88,3.97.07,7.95.09,11.92,0,1.48-.04,2.07.9,2.8,1.83,8.86,11.29,17.73,22.58,27,34.38h0Z"/>
  <path class="cls-10" d="M551.4,217.81c0-6.44.04-12.52-.03-18.59-.01-1.24.3-1.63,1.55-1.56,2.09.11,4.2.07,6.3.01.87-.02,1.11.25,1.11,1.12-.03,11.55-.03,23.09,0,34.64,0,.99-.34,1.27-1.23,1.14h-.17c-2.32-.02-4.96.63-6.86-.27-1.83-.87-2.91-3.33-4.3-5.11-3.85-4.94-7.68-9.9-11.68-15.06,0,6.36-.05,12.47.03,18.58.02,1.45-.27,2.03-1.85,1.9-1.98-.16-3.98-.07-5.96-.02-.8.02-1.17-.13-1.17-1.06.03-11.6.03-23.2,0-34.8,0-.79.24-1.06,1.04-1.05,2.21.04,4.42.05,6.63,0,.82-.02,1.15.5,1.56,1.02,4.93,6.28,9.86,12.56,15.02,19.13v-.02Z"/>
  <path class="cls-7" d="M282.95,201.99c-1.99,0-3.98-.09-5.96.03-1.61.09-2.05-.56-2.01-2.07.08-3.18.92-6.78-.29-9.41-1.17-2.55-5.29-2.31-7.95-3.75-13.25-7.16-20.1-21.71-17.35-37.31,2.54-14.4,14.18-25.44,28.83-27.35,18.78-2.45,34.86,8.63,38.82,26.75,3.93,17.99-6.24,35.18-24.14,40.54-1.69.51-1.92,1.25-1.88,2.68.07,2.68-.04,5.36.04,8.04.05,1.41-.41,1.95-1.86,1.88-2.08-.1-4.17-.02-6.26-.02h.01ZM283.17,174.87c10.75.03,17.98-7.49,17.96-18.68-.02-11.06-7.16-18.55-17.72-18.58-10.8-.03-17.94,7.39-17.94,18.64s7.13,18.58,17.7,18.61h0Z"/>
  <path class="cls-7" d="M602.89,233.25c-1.56-.84-4.01-2.44-6.12-5.22-.55-.73-5.04-7.13-3.56-15.53,1.41-8.01,7.89-14.15,16.04-15.22,10.45-1.36,19.39,4.8,21.6,14.88,2.19,10.01-2.5,20.48-13.52,22.87-2.09.37-4.24.51-6.45.43-.95-.09-2.02-.24-3.16-.51-1.93-.45-3.54-1.09-4.82-1.7h0ZM612,226.63c5.98.02,10-4.17,9.99-10.39-.01-6.15-3.98-10.32-9.86-10.33-6.01-.02-9.98,4.11-9.98,10.37s3.97,10.34,9.85,10.35Z"/>
  <path class="cls-2" d="M388.66,156.49c0-10.32.04-20.65-.04-30.97-.01-1.86.37-2.58,2.44-2.56,14.5.1,29,.09,43.5.02,2.02-.01,2.55.65,2.47,2.57-.14,3.37-.16,6.76,0,10.12.1,2.06-.69,2.48-2.57,2.46-9.04-.08-18.07.02-27.11-.07-2-.02-2.96.41-2.69,2.6.33,2.63-1.13,6.03.64,7.72,1.61,1.53,4.92.42,7.49.45,5.06.06,10.13.06,15.19-.01,1.53-.02,2.08.42,2.02,2.02-.12,3.27-.16,6.56,0,9.82.1,2.06-.48,2.72-2.62,2.68-6.75-.14-13.51.02-20.26-.09-1.94-.03-2.63.5-2.48,2.48.17,2.17.15,4.37,0,6.55-.12,1.89.67,2.32,2.42,2.31,9.23-.07,18.47.04,27.71-.09,2.24-.03,2.94.57,2.81,2.82-.19,3.26-.12,6.55-.02,9.82.05,1.71-.32,2.45-2.28,2.43-14.8-.08-29.59-.08-44.39,0-1.93.01-2.29-.66-2.28-2.39.07-10.23.03-20.45.03-30.68h.02Z"/>
  <path class="cls-2" d="M573.45,232.44c0,1.24-.99,2.24-2.23,2.25l-5.44.04c-1.07,0-1.27-.37-1.27-1.33.04-5.69.02-11.38.02-17.07s.02-11.49-.02-17.23c0-1.31.32-1.34,2.5-1.34l21.49.06c2.83,0,2.82.11,2.88,2.05.04,1.49,0,1.55.03,4.45.02,1.77,0,1.77-1.39,1.79-5.03-.05-10.05.01-15.08-.04-1.43-.04-1.44-.04-1.5,1.4v.1l.09,2.95c.01,1.01.62,1.53,1.81,1.58,3.69-.04,1.41-.05,2.62-.03,2.82.03,5.64.03,8.45,0,.84-.01,1.14.22,1.12,1.08-.05,1.86-.07,3.71,0,5.57.04,1.1-.29,1.46-1.46,1.43-3.76-.08-7.51,0-11.27-.05-1.08-.02-1.47.28-1.38,1.38.09,1.2.08,2.42,0,3.62v.04l.02,7.31h.01Z"/>
  <path class="cls-10" d="M372.22,104.92c-5.64,0-10.98-.06-16.32.04-1.49.03-1.96-.86-2.2-1.89-1.32-5.76-4.87-7.23-10.56-6.73-6.7.6-13.5.23-20.25.09-1.99-.04-3.32.43-3.73,2.41-1.11,5.39-4.47,6.83-9.63,6.17-3.42-.44-6.94-.08-10.41-.08-.49-1.07.29-1.75.63-2.48,9.63-20.53,19.32-41.03,28.92-61.57.78-1.67,1.79-2.03,3.56-2.34,6.88-1.21,10.08,1.74,12.84,8.05,8.17,18.68,17.21,36.98,25.9,55.43.41.87.76,1.77,1.25,2.91h0ZM327.02,81.51c5.34,0,10.17-.02,15.01,0,1.38,0,1.79-.34,1.15-1.72-2.59-5.63-5.1-11.29-7.73-17.11-2.81,6.28-5.51,12.29-8.43,18.82h0Z"/>
  <path class="cls-7" d="M322.41,144.97c0-6.46.09-12.92-.05-19.37-.04-2.13.65-2.72,2.7-2.63,3.57.15,7.16.16,10.73,0,2.1-.1,2.68.58,2.66,2.66-.1,11.03-.06,22.05-.04,33.08,0,1.78.1,3.58.32,5.35.87,7.02,5.97,11.56,13.11,11.75,7.22.19,12.41-3.95,13.83-10.93.48-2.37.49-4.73.49-7.12,0-10.73.06-21.46-.05-32.19-.02-2.13.62-2.7,2.67-2.61,3.77.16,7.55.06,11.33.04,1.18,0,2.14,0,2.1,1.67-.29,13.6.73,27.23-.53,40.8-1.35,14.56-11.96,24.42-26.58,25.23-4.49.25-8.94-.07-13.26-1.38-11.05-3.35-18.53-12.8-19.13-24.69-.33-6.54-.06-13.11-.06-19.66h-.25,0Z"/>
  <path class="cls-7" d="M275.61,106.2c-12.73.04-22.61-6.43-27.4-17.8-.78-1.84-.46-2.53,1.48-2.98,3.76-.87,7.48-1.92,11.19-2.99,1.46-.42,2.16-.2,2.93,1.34,2.97,5.99,9.63,9.16,15.59,7.69,2.51-.62,4.83-1.56,5.26-4.52.42-2.9-1.64-4.27-3.79-5.45-4.02-2.2-8.42-3.45-12.67-5.09-3.14-1.22-6.29-2.41-9.17-4.2-10.81-6.71-12.11-19.5-2.86-28.18,12.99-12.19,36.62-7.44,43.7,8.71.97,2.21.7,3.06-1.78,3.55-3.49.69-6.93,1.69-10.31,2.8-1.79.59-2.48.25-3.27-1.5-2.43-5.4-8.36-7.81-13.95-5.97-2.01.66-3.61,1.75-3.93,4-.32,2.24,1.19,3.49,2.84,4.48,3.16,1.9,6.7,2.94,10.14,4.21,4.18,1.54,8.32,3.14,12.26,5.28,13.25,7.19,11.91,24.96.73,32.06-5.2,3.3-10.9,4.61-16.98,4.55h-.01Z"/>
  <path class="cls-7" d="M647.95,235.41c-7.08.02-12.58-3.58-15.24-9.9-.43-1.03-.26-1.41.82-1.66,2.09-.48,4.16-1.07,6.22-1.66.81-.23,1.2-.11,1.63.75,1.65,3.33,5.36,5.1,8.67,4.28,1.39-.34,2.69-.87,2.92-2.51.23-1.62-.91-2.38-2.11-3.03-2.23-1.22-4.69-1.92-7.05-2.83-1.75-.68-3.5-1.34-5.1-2.34-6.01-3.73-6.74-10.85-1.59-15.68,7.23-6.78,20.37-4.14,24.31,4.84.54,1.23.39,1.7-.99,1.98-1.94.39-3.86.94-5.74,1.56-.99.33-1.38.14-1.82-.83-1.35-3-4.65-4.35-7.76-3.32-1.12.37-2.01.97-2.19,2.22s.66,1.94,1.58,2.49c1.76,1.06,3.73,1.64,5.64,2.34,2.33.86,4.63,1.75,6.82,2.93,7.37,4,6.63,13.89.41,17.83-2.89,1.83-6.06,2.57-9.45,2.53h.02Z"/>
  <path class="cls-11" d="M537.85,123.01c8.44,0,16.89.06,25.33-.04,2.06-.03,2.8.52,2.69,2.65-.17,3.37-.14,6.76,0,10.13.07,1.82-.49,2.42-2.34,2.38-5.06-.11-10.14.1-15.2-.1-2.33-.09-2.75.69-2.73,2.84.09,15.2,0,30.39.11,45.59.02,2.47-.61,3.27-3.1,3.11-3.46-.22-6.96-.18-10.43,0-2.1.11-2.65-.54-2.64-2.63.09-15.2,0-30.39.11-45.59.02-2.48-.39-3.48-3.17-3.32-4.75.27-9.53.01-14.3.11-1.71.03-2.52-.31-2.44-2.26.15-3.57.12-7.15,0-10.72-.05-1.7.5-2.18,2.19-2.16,8.64.08,17.29.04,25.93.04v-.03Z"/>
  <path class="cls-10" d="M493.79,38.62c8.44,0,16.89.06,25.33-.04,1.97-.02,2.84.34,2.72,2.55-.19,3.36-.15,6.75-.01,10.12.07,1.8-.42,2.42-2.31,2.37-4.96-.13-9.94.09-14.89-.1-2.4-.09-3.16.43-3.14,3.01.14,15.19,0,30.38.13,45.57.02,2.44-.74,2.96-2.97,2.85-3.57-.18-7.15-.16-10.72,0-1.99.09-2.46-.58-2.45-2.49.08-15.29-.02-30.58.11-45.87.02-2.49-.6-3.18-3.08-3.08-4.86.21-9.73,0-14.6.1-1.69.04-2.24-.45-2.19-2.16.12-3.47.15-6.95,0-10.42-.09-1.96.52-2.5,2.47-2.47,8.54.1,17.08.04,25.62.05h-.02Z"/>
  <path class="cls-11" d="M588.41,156.48c0,10.13-.05,20.26.04,30.39.02,2.06-.53,2.78-2.65,2.68-3.57-.17-7.16-.21-10.72.01-2.32.14-2.76-.66-2.75-2.82.08-19.57.05-39.13.05-58.7,0-3.36,1.64-5.04,4.91-5.04,2.88,0,5.77.11,8.64-.04,1.98-.1,2.53.57,2.52,2.53-.09,10.33-.04,20.66-.04,30.99h0Z"/>
  <path class="cls-2" d="M392.55,71.82c0,10.23-.05,20.46.05,30.69.02,1.97-.55,2.52-2.49,2.45-3.77-.15-7.55-.1-11.32-.02-1.54.03-2.3-.2-2.3-2.06.07-20.76.06-41.52.02-62.28,0-1.58.53-2.06,2.06-2.03,3.87.08,7.75.15,11.62-.02,2.09-.09,2.4.75,2.39,2.57-.07,10.23-.04,20.46-.03,30.69h0Z"/>
  <path class="cls-2" d="M523.54,216.24c0,5.69-.03,11.38.03,17.07.01,1.1-.31,1.4-1.38,1.36-2.1-.08-4.2-.05-6.3,0-.86.02-1.28-.11-1.28-1.14.04-11.55.03-23.1,0-34.65,0-.88.3-1.15,1.15-1.13,2.15.05,4.31.08,6.47-.01,1.17-.05,1.34.42,1.33,1.43-.04,5.69-.02,11.38-.02,17.07h0Z"/>
  <path class="cls-6" d="M65.62,21.44c0-9.31,7.3-16.68,16.52-16.68s16.94,7.55,16.85,16.77c-.08,9.04-7.77,16.63-16.8,16.6-9.18-.03-16.57-7.47-16.57-16.69Z"/>
  <path class="cls-6" d="M82.36,189.51c9.35.03,16.76,7.55,16.64,16.89-.11,8.68-8.11,16.56-16.73,16.47-9.31-.09-16.67-7.61-16.64-17,.03-9.31,7.28-16.39,16.73-16.36Z"/>
  <path class="cls-6" d="M224.34,133.66c-.03,9.31-7.31,16.58-16.62,16.54-8.15-.03-16.53-5.99-16.6-16.69-.06-10.65,8.68-16.77,16.9-16.69,9.23.09,16.36,7.41,16.32,16.83h0Z"/>
  <path class="cls-6" d="M64.51,41.27c-.02,9.46-7.3,16.55-16.86,16.58-7.61.02-16.32-5.89-16.41-16.88-.07-9.1,7.81-16.53,16.86-16.5,9.08.02,16.43,7.55,16.41,16.81h0Z"/>
  <path class="cls-6" d="M224.33,94.05c.58,7.4-5.58,16.7-16.54,16.57-9.68-.11-16.63-6.73-16.64-16.93,0-10.6,9.12-16.66,16.84-16.35,9.46.38,16.38,7.15,16.34,16.71h0Z"/>
  <path class="cls-6" d="M48.17,169.8c9.47.03,16.36,7.06,16.33,16.68-.03,9.41-7.15,16.17-16.76,16.34-8,.14-16.39-6.03-16.47-16.45-.07-10.16,8.19-17.15,16.9-16.56h0Z"/>
  <path class="cls-4" d="M172.97,78.68c-2.48.02-4.36-1.58-4.73-4.37-.37-2.74-.72-5.48-1.08-8.22-.38-2.91,1.3-5.38,4.26-5.79,6.56-.91,13.13-1.75,19.71-2.44,4.05-.42,5.91,1.29,6.29,5.3.22,2.36.46,4.72.72,7.08.37,3.34-.76,5.34-3.96,5.81-6.94,1.01-13.92,1.74-21.22,2.63h.01Z"/>
  <path class="cls-4" d="M52.56,145.82c.28,1.65-.47,2.81-1.31,3.94-3.75,4.99-7.46,10-11.25,14.95-2.57,3.35-4.63,3.61-8.09,1.15-2.02-1.43-4.02-2.89-5.95-4.43-2.58-2.06-3.01-4.59-1.06-7.27,3.9-5.36,7.87-10.68,11.94-15.92,2.17-2.8,4.37-3.04,7.21-1.05,2.19,1.53,4.32,3.15,6.44,4.78,1.29.99,2.43,2.12,2.08,3.85h-.01Z"/>
  <path class="cls-4" d="M104.33,205.05c-.23-1.87.85-3.41,1.51-5.04,2.08-5.14,4.29-10.24,6.46-15.34,1.34-3.15,3.5-4.2,6.69-3.02,2.79,1.03,5.53,2.21,8.2,3.5s3.43,3.42,2.3,6.17c-2.45,5.96-4.91,11.91-7.48,17.82-1.89,4.34-3.57,4.97-7.92,3.21-2.39-.97-4.76-1.97-7.11-3.03-1.77-.81-2.83-2.15-2.65-4.26h0Z"/>
  <path class="cls-4" d="M198.36,155.72c-.4,3.72-.66,6.48-.99,9.22-.42,3.41-2.8,5.05-6.24,4.58-6.55-.89-13.13-1.61-19.68-2.54-3.36-.48-4.7-2.6-4.21-5.86.4-2.63.58-5.3,1.02-7.93.44-2.64,1.88-4.5,4.8-4.2,7.27.74,14.54,1.51,21.77,2.57,2.56.38,3.54,2.6,3.54,4.17h0Z"/>
  <path class="cls-4" d="M104.33,22.98c-.1-2.71.87-4.16,2.83-4.99,2.65-1.12,5.27-2.3,7.95-3.33,2.93-1.12,5.27-.12,6.54,2.82,2.59,6,5.15,12.01,7.64,18.06,1.44,3.51.6,5.55-2.91,7.16-2.52,1.16-5.1,2.17-7.65,3.27-2.46,1.06-4.63.18-5.61-1.91-3.1-6.63-5.84-13.43-8.69-20.18-.18-.43-.09-.98-.09-.91h0Z"/>
  <path class="cls-4" d="M35.53,60.16c1.62-.02,2.85.49,3.76,1.69,4.17,5.54,8.4,11.04,12.48,16.65,1.67,2.3,1.15,5.15-1.07,6.9-2.1,1.66-4.25,3.26-6.44,4.78-2.86,1.98-5.41,1.59-7.5-1.13-3.86-5.03-7.71-10.06-11.47-15.17-2.44-3.31-2.17-5.43.93-7.95,2.07-1.69,4.29-3.2,6.41-4.82.91-.7,1.89-1.06,2.9-.95h0Z"/>
  <path class="cls-4" d="M172.32,209.53c-.85.02-.99-.77-1.31-1.33-4.86-8.4-9.67-16.83-14.58-25.21-.75-1.29-.86-2,.61-2.79,3.23-1.74,6.4-3.58,9.54-5.48,1.68-1.02,2.86-.48,3.73.99,4.71,8.03,9.37,16.09,14.05,24.14.74,1.26.48,2.43-.65,3.12-3.54,2.17-7.17,4.21-10.77,6.3-.17.1-.36.16-.61.26h0Z"/>
  <path class="cls-4" d="M149.16,42.87c-.31-.15-.77-.34-1.2-.58-2.93-1.67-5.84-3.39-8.79-5.03-2.18-1.2-2.6-2.71-1.33-4.89,4.39-7.55,8.73-15.13,13.05-22.72,1.17-2.07,2.61-2.48,4.66-1.24,2.89,1.75,5.81,3.44,8.77,5.06,1.42.78,1.77,1.5.87,3.03-4.88,8.3-9.65,16.66-14.46,24.99-.33.57-.53,1.33-1.57,1.38Z"/>
  <path class="cls-4" d="M167.83,53.56c-.34-.14-.92-.3-1.42-.59-3.09-1.78-6.11-3.68-9.25-5.37-1.6-.86-1.46-1.62-.64-3.01,4.86-8.29,9.65-16.61,14.39-24.97.74-1.31,1.34-1.7,2.72-.84,3.11,1.93,6.29,3.76,9.47,5.58,1.72.99,2.07,2.2,1.06,3.93-4.44,7.61-8.84,15.25-13.28,22.87-.64,1.1-1.28,2.29-3.04,2.4h-.01Z"/>
  <path class="cls-4" d="M165.78,212.4c.11.94-.51,1.28-1.12,1.64-3.08,1.8-6.15,3.63-9.25,5.41-1.89,1.09-3.36.67-4.47-1.28-4.37-7.67-8.76-15.32-13.17-22.97-1.02-1.76-.92-3.22.91-4.31,3.15-1.88,6.34-3.7,9.49-5.58,1.05-.62,1.74-.59,2.41.58,4.93,8.61,9.9,17.18,14.85,25.77.15.26.26.53.35.73h0Z"/>
  <path class="cls-3" d="M16.75,117.33c4.56,0,9.13.08,13.69-.04,1.96-.05,2.61.64,2.54,2.57-.12,3.37-.09,6.75-.02,10.12.04,2.03-.91,2.92-2.85,2.92-9.03,0-18.06.01-27.09.02-2.14,0-3-1.12-2.98-3.18.04-3.37.1-6.75-.02-10.12-.07-1.89.7-2.35,2.44-2.32,4.76.09,9.53.03,14.29.03Z"/>
  <path class="cls-3" d="M16.47,110.38c-4.56,0-9.13-.08-13.69.04-1.98.05-2.88-.42-2.77-2.61.17-3.26.08-6.54.03-9.82-.04-2.27,1.05-3.23,3.26-3.22,8.83.03,17.66.04,26.49.02,2.22,0,3.26.89,3.18,3.22-.11,3.27-.12,6.55,0,9.82.07,1.91-.53,2.64-2.52,2.59-4.66-.12-9.33-.04-13.99-.04h0Z"/>
  <path class="cls-13" d="M56.64,111.3c-5.36,0-10.72-.06-16.08.03-2.06.03-2.56-.46-1.92-2.58,2.39-7.94,9.42-13.35,17.67-13.37,8.33,0,15.45,5.34,17.79,13.2.54,1.82.38,2.49-1.69,2.45-5.25-.1-10.51-.03-15.77-.03v.29h0Z"/>
  <path class="cls-13" d="M159.29,161.24c.11,6.2-1.78,10.41-5.14,14.05-1.07,1.16-1.8,1.59-2.82-.21-5.38-9.46-10.84-18.87-16.36-28.25-1.24-2.1.41-2.08,1.51-2.37,11.56-3.02,22.81,5.85,22.81,16.77h0Z"/>
  <path class="cls-13" d="M140.33,83.43c-1.71-.07-4.57.19-5.78-1.61-.8-1.2,1.4-3.23,2.32-4.84,4.63-8.09,9.4-16.11,13.97-24.23,1.08-1.91,1.69-2.19,3.3-.51,4.89,5.11,6.45,12.94,3.71,19.62-2.82,6.88-9.61,11.51-17.52,11.57h0Z"/>
  <path class="cls-13" d="M122.27,64.98c.04-12.09,11.46-21.01,22.92-17.97,1.75.46,2.07.88,1.11,2.51-5.48,9.31-10.89,18.65-16.23,28.03-.89,1.55-1.46,1.4-2.54.28-3.47-3.6-5.22-7.87-5.26-12.85h0Z"/>
  <path class="cls-13" d="M140.73,180.83c-7.74-.24-13.41-3.83-16.62-10.88-3.29-7.22-1.82-13.87,3.05-19.94,1.54-1.92,2.37-1.58,3.53.47,5.1,9.06,10.27,18.07,15.6,26.99,1.29,2.16.49,2.7-1.37,3-1.37.22-2.76.24-4.19.36h0Z"/>
  <path class="cls-13" d="M56.31,116.81c5.27,0,10.53.11,15.79-.05,2.38-.07,2.58.68,1.92,2.72-2.4,7.42-9.46,12.76-17.22,12.84-8.23.08-15.42-5.02-17.96-12.64-.67-2.01-.74-3.01,1.97-2.9,5.16.21,10.33.06,15.5.06v-.02h0Z"/>
  <path class="cls-9" d="M190.35,116.44c-3.72,4.22-7.67,7.12-11.84,9.74-4.45,2.8-9.23,4.92-14.25,6.5-1.48.47-1.94.11-1.92-1.42.06-4.16.1-8.32-.02-12.48-.05-1.81.5-2.4,2.34-2.38,8.32.09,16.64.04,25.68.04h0Z"/>
  <path class="cls-2" d="M76.21,44.99c10.86,2.81,19.63,7.73,27.27,14.76.83.76,1.05,1.28-.14,1.95-3.97,2.23-7.91,4.52-11.82,6.85-1.02.61-1.51.41-2.07-.57-4.27-7.47-8.58-14.92-13.24-22.99h0Z"/>
  <path class="cls-2" d="M71.18,48.47c1.09.22,1.24,1.11,1.61,1.75,3.83,6.59,7.59,13.22,11.47,19.77.85,1.43,1.08,2.22-.68,3.15-3.68,1.93-7.26,4.04-10.81,6.21-1.44.88-1.99.69-2.34-.97-2.1-10.03-2-19.98.74-29.91h0Z"/>
  <path class="cls-2" d="M71.35,179.75c-2.97-11.26-3.13-21.73-.38-32.63,4.58,2.64,8.89,5.16,13.24,7.62.85.48,1.1.89.55,1.83-4.38,7.51-8.71,15.04-13.41,23.18h0Z"/>
  <path class="cls-2" d="M182.92,176.68c.09-1.96,1.32-2.68,3-2.38,5.54.96,11.09,1.96,16.58,3.15,2.58.56,3.15,2.3,1.45,4.39-3.5,4.29-7.11,8.5-10.81,12.62-1.61,1.8-3.46,1.62-4.26-.47-2.09-5.42-3.91-10.95-5.82-16.44-.1-.27-.1-.58-.14-.87Z"/>
  <path class="cls-2" d="M104.63,166.54c-8.09,7.93-17.3,13.01-28.43,15.99,4.65-8.08,9.01-15.66,13.36-23.24.52-.91,1.05-.86,1.91-.35,4.25,2.52,8.55,4.95,13.16,7.6Z"/>
  <path class="cls-2" d="M125.7,227.02c-2.2-.09-3.42-1.05-2.88-3.01,1.61-5.79,3.65-11.46,5.98-17,.81-1.92,2.61-1.87,3.88-.45,3.83,4.27,7.57,8.63,11.2,13.06,1.42,1.73,1.09,3.53-1.29,4.05-5.69,1.25-11.42,2.28-16.9,3.35h0Z"/>
  <path class="cls-2" d="M2.38,142.57c.03-2.57,1.28-3.28,2.95-3,5.64.97,11.29,1.97,16.88,3.2,2.18.48,2.93,2.2,1.4,4.05-3.65,4.43-7.4,8.78-11.2,13.08-1.15,1.3-2.92,1.63-3.73-.1-2.69-5.71-4.41-11.8-6.3-17.23h0Z"/>
  <path class="cls-2" d="M126.34.6c5.03.95,10.58,1.92,16.08,3.08,2.27.48,2.99,2.25,1.57,4-3.67,4.53-7.48,8.96-11.39,13.29-1.49,1.65-3.26,1.09-4-.85-2.03-5.34-3.96-10.73-5.68-16.17-.77-2.45.29-3.45,3.42-3.35h0Z"/>
  <path class="cls-2" d="M190.43,110.9c-9.31,0-17.9-.01-26.5.02-1.13,0-1.59-.37-1.57-1.54.04-4.46.05-8.93,0-13.39-.03-2.42,1.53-1.28,2.39-1,9.6,3.07,17.99,8.16,25.68,15.92h0Z"/>
  <path class="cls-2" d="M186.69,53.06c-3.43.16-4.23-1.21-3.59-3.17,1.77-5.46,3.64-10.89,5.69-16.24.84-2.19,2.65-2.5,4.22-.75,3.85,4.28,7.6,8.66,11.22,13.13,1.34,1.66.73,3.45-1.36,3.91-5.71,1.24-11.48,2.23-16.17,3.12h-.01Z"/>
  <path class="cls-2" d="M5.89,87.86c-2.92.05-4.01-1.11-3.41-2.97,1.81-5.62,3.77-11.21,5.89-16.72.8-2.09,2.69-2.1,4.06-.59,3.84,4.26,7.56,8.63,11.2,13.06,1.33,1.62,1.02,3.43-1.14,3.92-5.78,1.3-11.62,2.32-16.6,3.29h0Z"/>
  <path class="cls-1" d="M145.92,116.32c3.18,0,6.36.05,9.54-.02,2.14-.05,2.31.83,1.56,2.56-1.84,4.26-6.12,6.97-11.18,6.96-4.96,0-9.3-2.81-11.16-7.06-.85-1.93-.23-2.49,1.7-2.45,3.18.07,6.36.02,9.54.02v-.02h0Z"/>
  <path class="cls-1" d="M96.81,72.68c4.48.35,8.05,2.55,10.26,6.7,2.3,4.34,1.63,8.55-.94,12.6-1.09,1.72-1.88,1.62-2.86-.12-2.91-5.16-5.93-10.26-8.85-15.42-.51-.91-1.61-1.86-1.09-2.91.63-1.26,2.12-.68,3.48-.85Z"/>
  <path class="cls-1" d="M145.82,110.84c-3.28,0-6.56-.03-9.83.01-1.51.02-1.94-.41-1.35-1.95,1.53-4.01,6.3-7.35,10.96-7.5,4.67-.15,9.67,3.1,11.41,7.26.64,1.54.44,2.2-1.35,2.17-3.28-.05-6.56-.02-9.83-.02h0v.03Z"/>
  <path class="cls-4" d="M108.05,142.39c-.04,7.76-7,13.53-14.18,12.05-1.11-.23-1.34-.57-.78-1.54,3.42-5.9,6.83-11.8,10.22-17.71.84-1.46,1.61-1.07,2.46-.02,1.76,2.19,2.42,4.71,2.28,7.24v-.02Z"/>
  <path class="cls-1" d="M83.63,142.31c.15-6.42,6.02-12.25,12.15-12.24,1.07,0,2.41,0,2.97.91.46.73-.53,1.59-.97,2.34-3.08,5.32-6.22,10.61-9.22,15.97-.99,1.76-1.62,1.54-2.65.08-1.56-2.21-1.94-4.72-2.28-7.06Z"/>
  <path class="cls-1" d="M84.08,84.86c-.12-2.58.67-4.85,2.13-6.96,1.01-1.46,1.78-1.3,2.6.13,3.2,5.59,6.4,11.18,9.63,16.75.94,1.62.57,2.25-1.32,2.4-7.08.59-13.06-5.01-13.04-12.32Z"/>
  <path class="cls-8" d="M62.72,75.94c0,3.87-.04,7.74.02,11.62.02,1.49-.2,2.42-2.05,2.48-1.97.06-2.28-.85-2.3-2.51-.1-7.64-.26-15.28-.49-22.92-.06-1.94.41-2.98,2.56-3.01,2.34-.03,2.15,1.51,2.15,3.03v11.32h.12,0Z"/>
  <path class="cls-8" d="M160.89,148.44c-1.31-.26-1.5-1.49-2.01-2.37-.49-.85,0-1.47.81-1.91,7.24-4.05,14.48-8.11,21.72-12.15,1.56-.87,2.09.37,2.7,1.4.55.93.85,1.78-.39,2.47-7.34,4.08-14.66,8.18-21.99,12.27-.25.14-.55.2-.83.3h0Z"/>
  <path class="cls-8" d="M118.73,55.28c-.27.97-.79,1.93-1.62,2.66-.84.74-1.46-.09-2.09-.46-6.82-4.04-13.6-8.13-20.44-12.11-1.47-.85-1.71-1.6-.77-3.03.81-1.22,1.36-1.96,2.98-.97,6.84,4.18,13.77,8.23,20.66,12.33.59.35,1.28.62,1.28,1.58h0Z"/>
  <path class="cls-8" d="M184.5,93.44c-.09,1.7-1.85,2.7-3.77,1.63-6.83-3.8-13.62-7.68-20.48-11.41-1.67-.91-1.72-1.79-.89-3.29.84-1.53,1.72-1.48,3.1-.7,6.88,3.91,13.81,7.74,20.71,11.61.65.37,1.49.66,1.34,2.16h0Z"/>
  <path class="cls-8" d="M118.71,172.16c.07.87-.58,1.18-1.18,1.53-6.9,4.11-13.81,8.19-20.68,12.36-1.54.93-2.26.33-3.08-.95-.93-1.46-.53-2.23.87-3.05,6.76-3.95,13.46-8,20.21-11.98,1.82-1.07,3.86.08,3.86,2.1h0Z"/>
  <path class="cls-8" d="M62.6,151.42c0,3.87-.04,7.74.02,11.61.03,1.76-.33,2.79-2.45,2.74-1.97-.04-2.29-.98-2.25-2.62.2-7.83.37-15.67.48-23.5.02-1.54.56-2.06,2.1-2.05,1.61.02,2.31.45,2.26,2.21-.11,3.87-.04,7.74-.04,11.61h-.12Z"/>
  <path class="cls-12" d="M105.07,215.75c3.4.03,5.95,2.62,5.93,6.03-.02,3.37-2.67,5.97-6.04,5.94-3.36-.03-5.97-2.69-5.94-6.06s2.66-5.95,6.05-5.92h0Z"/>
  <path class="cls-12" d="M104.89,11.97c-3.38-.05-5.94-2.72-5.88-6.09.06-3.35,2.76-5.94,6.12-5.88,3.35.06,5.92,2.74,5.86,6.13-.06,3.38-2.69,5.9-6.11,5.85h0Z"/>
  <path class="cls-12" d="M17.28,174.59c-.05-3.43,2.54-6.08,5.95-6.1,3.23-.02,5.91,2.54,6.03,5.76.12,3.32-2.54,6.19-5.84,6.3-3.31.11-6.09-2.59-6.14-5.95h0Z"/>
  <path class="cls-12" d="M17.28,53.29c-.03-3.39,2.63-6.12,5.97-6.12s6.05,2.84,6.01,6.14c-.03,3.22-2.65,5.85-5.88,5.92-3.41.07-6.08-2.53-6.11-5.94h0Z"/>
  <path class="cls-12" d="M215.97,161.09c0,3.46-2.57,5.98-6.05,5.94-3.31-.04-5.86-2.53-5.93-5.8-.07-3.33,2.63-6.13,5.95-6.18,3.36-.04,6.03,2.63,6.03,6.04h0Z"/>
  <path class="cls-12" d="M210.09,60.69c3.44.04,5.97,2.67,5.89,6.11-.08,3.28-2.66,5.84-5.91,5.87-3.29.03-6.07-2.74-6.07-6.05s2.64-5.97,6.1-5.93h0Z"/>
  <path class="cls-12" d="M115.83,69.37c0,2.79-2.13,4.95-4.85,4.95s-4.86-2.21-4.85-4.97c0-2.77,2.14-4.94,4.86-4.93,2.73,0,4.85,2.18,4.83,4.94h.01Z"/>
  <path class="cls-12" d="M110.95,163.28c-2.71-.02-4.84-2.21-4.82-4.97,0-2.75,2.2-4.94,4.9-4.92,2.72.03,4.82,2.2,4.81,4.99,0,2.77-2.16,4.91-4.88,4.9h0Z"/>
  <path class="cls-12" d="M152.2,98.1c-2.69.03-4.89-2.15-4.9-4.9-.02-2.77,2.08-4.94,4.81-4.97,2.75-.03,4.88,2.1,4.89,4.87,0,2.81-2.07,4.97-4.79,5h-.01Z"/>
  <path class="cls-12" d="M156.99,134.47c.06,2.78-2.01,4.96-4.75,5.02-2.73.05-4.9-2.07-4.96-4.83-.05-2.75,2.05-4.98,4.76-5.04,2.72-.06,4.89,2.07,4.94,4.85h.01Z"/>
  <path class="cls-1" d="M124.67,142.53c-.74.98-1.48,2.01-2.27,2.99-2.95,3.65-3.07,3.77-6.52.74-3.66-3.21-3.78-2.07-.61-5.97,2.81-3.46,2.86-3.41,6.59-.5,1,.78,2.14,1.4,2.82,2.74h0Z"/>
  <path class="cls-1" d="M89.93,121.36c-.81,2.22-1.6,4.44-2.45,6.64-.19.5-.7.71-1.23.52-2.04-.73-4.07-1.48-6.1-2.23-.52-.19-.88-.59-.75-1.11.56-2.3,1.29-4.54,2.39-6.64.27-.52.8-.63,1.27-.47,2.05.69,4.08,1.43,6.11,2.18.47.17.89.47.76,1.12h0Z"/>
  <path class="cls-12" d="M75.05,94.97c-2.77-.04-4.79-2.15-4.76-4.97.03-2.8,2.13-4.85,4.91-4.8,2.77.05,4.81,2.16,4.78,4.96-.03,2.75-2.19,4.85-4.94,4.81h.01Z"/>
  <path class="cls-9" d="M129.81,118.13c-1.68,2.71-3.37,5.62-5.26,8.39-.56.83-1.27-.02-1.6-.59-1.45-2.48-2.86-4.98-4.25-7.49-.71-1.28-.09-1.9,1.18-1.91,2.88,0,5.75.06,8.63.13.74.02,1.33.3,1.3,1.46h0Z"/>
  <path class="cls-9" d="M101.25,116.5c6.48.23,6.52.25,3.18,5.82-.94,1.57-1.45,4.29-3.22,4.27-1.77-.01-2.08-2.83-3.17-4.32-.46-.64-.79-1.37-1.18-2.06-2.03-3.58-1.94-3.73,2.31-3.71h2.08Z"/>
  <path class="cls-12" d="M79.99,137.67c-.03,2.77-2.14,4.85-4.91,4.84-2.79-.02-4.81-2.1-4.79-4.92.02-2.81,2.1-4.88,4.88-4.86,2.73.02,4.85,2.2,4.83,4.94h0Z"/>
  <path class="cls-1" d="M86.54,99.14c.14.07.64.17.75.43.92,2.27,1.81,4.56,2.63,6.87.2.56-.35.85-.82,1.03-2.01.79-4.03,1.58-6.05,2.35-.27.1-.75.25-.82.15-1.57-2.09-2.08-4.64-2.74-7.06-.42-1.55,1.41-1.62,2.4-2.06,1.43-.64,2.95-1.09,4.67-1.71h-.02Z"/>
  <path class="cls-9" d="M112.7,96.66c1.8.41,4.34-.84,5.33.77,1.02,1.66-1.16,3.31-2.04,4.87-3.31,5.83-3.43,5.83-6.66-.07-.86-1.56-3.01-3.24-1.99-4.87,1.01-1.62,3.53-.29,5.37-.69h0Z"/>
  <path class="cls-1" d="M139.57,93.11c-1.71,1.29,1.44,5.84-2.98,5.62-2.08-.1-6.23,1.15-6.25-2.71,0-2.04-1.27-6.31,2.88-6.5,5.33-.25,6.44.66,6.35,3.58h0Z"/>
  <path class="cls-1" d="M118.77,79.2c1.41.11,1.94,1.18,2.63,1.96,3.57,4.06,3.45,3.97-.44,7.64-2.03,1.91-3.18,2.19-5-.36-3.17-4.45-3.35-4.32,1.06-7.84.61-.49,1.22-.97,1.76-1.39h0Z"/>
  <path class="cls-1" d="M139.62,134.87c-.03,2.36-2.8,3.93-6.67,3.36-3.73-.55-1.96-4.27-2.77-6.49-.56-1.52,2.95-3.37,6.6-2.88,3.93.52,1.4,4.49,2.85,6.01h-.01Z"/>
  <path class="cls-11" d="M101.44,110.88c-7.38,0-6.86.49-3.5-5.5,3.23-5.75,3.3-5.76,6.53-.13.91,1.59,3.06,3.31,2.2,4.87-.98,1.79-3.62.37-5.23.76Z"/>
  <path class="cls-11" d="M123.87,110.88c-7.21.12-6.25.07-3.15-5.38.94-1.66,1.41-4.49,3.29-4.54,1.93-.05,2.4,2.8,3.38,4.42,3.28,5.42,3.23,5.46-3.52,5.49h0Z"/>
  <path class="cls-11" d="M113.1,130.61c-4.56,0-5.75-1.93-3.56-5.79,3.17-5.6,2.8-6.12,6.23-.05.05.09.11.17.15.26.76,1.67,2.99,3.31,2.15,4.89-.89,1.68-3.45.33-4.97.7h0Z"/>
</svg>