<?xml version="1.0" encoding="UTF-8"?>
<svg id="Calque_1" data-name="Calque 1" xmlns="http://www.w3.org/2000/svg" viewBox="0 0 468.48 538.74">
  <defs>
    <style>
      .cls-1 {
        fill: #dd4b5e;
      }

      .cls-1, .cls-2, .cls-3, .cls-4, .cls-5 {
        stroke-width: 0px;
      }

      .cls-2 {
        fill: #3c8cc2;
      }

      .cls-3 {
        fill: #d7c47d;
      }

      .cls-4 {
        fill: #42a768;
      }

      .cls-5 {
        fill: #313131;
      }
    </style>
  </defs>
  <path class="cls-3" d="M273.27,293.22c25.49-17.15,43.12-39.78,51.25-71.95-9.68,7.89-17.52,14.58-27.54,17.66-1.9.58-4.12,2.17-5.53.26-1.61-2.17,1.04-3.46,2.28-4.83,31.66-34.84,22.55-93.11-16.51-119.66-28.66-19.48-48.52-50.58-38.27-94.3-28.15,21.48-45.8,47.81-55.06,80.13-9.24,32.24-6.6,63.89,5.35,97.14-20.61-10.68-31.14-26.4-36.66-46.17-10.11,9.9-16.4,49.37-6.19,78.96,9.3,26.96,25.74,47.56,49.64,62.79-59.2-12.83-117.92-74.47-110.84-156.95C91.52,62.44,154.34,1.75,230.67.04c79.13-1.78,147.22,56.76,153.77,138.64,6.02,75.29-46.06,140.47-111.18,154.54Z"/>
  <path class="cls-1" d="M279.33,459.45c1.53-18.91,16.7-33.59,36.13-34.97,18.24-1.29,37.1,12.83,40.55,30.36,3.81,19.4-6.75,38.66-24.34,45.06-5.52,2.01-11.03,2.8-16.8,2.51-2.43-.21-4.85-.42-7.28-.63-14.2-7.21-26.88-15.68-28.24-33.66,2.39-.38,4.83-.95,6.54,1.55,3.19,11.32,8.62,20.66,21.09,23.76,2.37,1.96,5.06,1.42,7.74,1,14.67,1.45,27.89-6.65,32.5-19.89,6.27-18-3.24-36.34-21.41-41.28-18.59-5.06-35.23,6.34-39.38,26.99-2.47.71-4.83.37-7.09-.79Z"/>
  <path class="cls-2" d="M153.87,502.21c-19.99,1.53-38.31-12.97-40.97-32.43-2.87-20.92,10.52-40.67,30.23-44.6,20.88-4.17,40.43,7.87,45.63,28.09.57,2.21,1.16,4.42,1.74,6.63-2.17,2.65-1.39,5.28.02,7.92-3.22,16.69-11.71,28.69-29.14,32.74.01-2.61.03-5.21.04-7.82,11.98-3.34,18.48-11.5,20.66-23.46,1.53-2.75,1.53-5.58.48-8.47-1.03-18.18-17.44-30.19-34.34-28.65-16.62,1.52-28.89,16.72-28.23,33.51.63,16.19,15.37,29.12,33.26,29.2,2.78,2.23,2.71,4.7.62,7.34Z"/>
  <path class="cls-3" d="M182.56,460.81c1.05,2.89,1.05,5.72-.47,8.46-10.3,4.81-16.72,13.05-20.66,23.47-.01,2.61-.03,5.21-.04,7.82-1.2,4.83,2.54,8.06,4.37,11.63,8.39,16.31,26.42,21.75,42.5,13.44,9.85-5.09,13.19-14.59,16.52-24.12,3.32.25,6.65.5,9.97.75-3.34,8.05-5.9,16.31-12.2,23.03-10.06,10.72-27.8,16.32-41.48,11.97-15.17-4.82-26-18.77-27.2-35.05,2.09-2.64,2.15-5.11-.62-7.33,2.61-17.51,11.96-29.23,29.32-34.06Z"/>
  <path class="cls-4" d="M307.58,501.77c2.43.21,4.86.42,7.28.63-1.95,18.81-15.21,32.63-33.37,34.8-19.04,2.27-35.79-7.71-42.2-25.25-1.18-3.21-1.94-6.58-2.9-9.87,3.18-3.53,2.7-5.91-2.16-6.93-.08-.55-.4-.79-.95-.71,2.63-.16,4.08-1.57,4.66-4.13,3.49-15.29,13.87-24.21,27.76-29.84-.14,3.08-.28,6.17-.43,9.25-10.53,3.84-17.02,11.16-19.16,22.22-1.47,2.87-4.86,5.68-.31,8.77-.51,10.91,4.99,18.7,13.7,24.07,20.19,12.45,41.87,1.93,48.08-23Z"/>
  <path class="cls-5" d="M245.81,500.7c-4.56-3.08-1.16-5.89.3-8.77,11.09-3.35,16.78-11.36,19.16-22.22.14-3.08.28-6.17.43-9.25-2.46-16.95-15.05-28.46-31.07-28.41-16.24.06-28.84,11.63-30.98,28.44-3.42,1.66-6.32,1.93-7.32-2.78-1.02-8.42,9.23-22.93,20.06-28.4,24.93-12.59,51.48,1.21,57.01,29.63,0,2.96-.02,5.92-.02,8.89-2.76,16.34-11.79,27.43-27.56,32.86Z"/>
  <path class="cls-5" d="M121.36,336.1c5.25-.35,11.21.3,15.82,5.05,5.31,5.48,6.43,12.28,1.66,17.93-4.02,4.77-3.36,7.15.87,10.55,2.3,1.85,2.82,4.96,3.23,7.82.36,2.56.88,5.44-2.86,6.04-3.52.57-5.19-.84-5.48-4.64-.37-4.78-2.94-8.18-8.17-8.3-5.44-.12-8.66,2.72-9.15,8.19-.31,3.45-1.7,5.44-5.41,4.93-3.84-.54-3.01-3.57-3.02-6.03-.03-10.06-.04-20.12,0-30.17.05-12.79-1.64-11.22,12.52-11.36ZM117.03,365.34c5.17-2.86,9.3-4.71,12.92-7.28,3.35-2.38,4.33-6.1,2.31-9.9-2.61-4.93-7.44-4.85-12.04-4.41-5.15.49-2.88,4.74-3.09,7.43-.34,4.18-.09,8.4-.09,14.17Z"/>
  <path class="cls-5" d="M364.26,359.6c.21,13.38-10.98,24.66-24.58,24.77-13.44.11-25.12-11.2-25.12-24.32,0-13.53,10.91-24.49,24.65-24.75,13.5-.26,24.84,10.74,25.05,24.3ZM339.71,376.59c8.74-.12,16.27-7.78,16.32-16.61.06-9.34-7.62-17.05-16.8-16.88-9.36.18-16.58,7.91-16.23,17.38.33,9.03,7.8,16.23,16.71,16.11Z"/>
  <path class="cls-5" d="M261.9,383.54c7.4-9.28,13.31-16.61,19.13-24.01,1.58-2.02,3.05-4.17,4.28-6.41,1.78-3.22.94-6.28-1.76-8.47-2.66-2.15-5.92-2.35-8.86-.54-2.95,1.82-4.6,4.73-2.92,8.06,1.82,3.61,2.41,7.49-1.84,8.38-3.93.82-5.23-3.72-6.1-6.98-1.88-7.03.76-12.61,6.83-16.09,6.27-3.59,12.76-3.12,18.45,1.55,5.29,4.35,6.48,9.96,3.86,16.26-2.35,5.68-6.97,9.77-10.51,14.61-.97,1.32-2.71,2.42-2.08,4.39.7,2.17,2.83,1.26,4.32,1.78,3.75,1.31,11.07-3.49,10.85,3.93-.21,7.11-7.31,2.92-11.17,3.33-6.72.72-13.58.2-22.47.2Z"/>
  <path class="cls-5" d="M53.59,364.39c0-4.59-.18-9.18.04-13.76.43-9.15,6.25-14.83,15.32-15.24,8.5-.38,15.55,4.63,16.27,13.16.86,10.24.41,20.6.41,30.91,0,2.05-.55,4.06-3.33,4.09-2.57.03-4.6-.59-4.66-3.67-.06-3.29-.96-6.26-3.45-8.5-2.91-2.63-6.59-4.12-10.28-3.16-4.28,1.11-2.07,5.25-2.55,8.09-.51,3.03,1.6,7.62-4.28,7.32-5.22-.27-3.29-4.43-3.44-7.2-.23-4-.06-8.02-.05-12.04ZM77.7,363.77c0-4.49.08-8.17-.02-11.84-.13-4.96-2.61-8.29-7.64-8.5-5.47-.22-8.16,3.17-8.68,8.45-.49,5-.22,8.97,6.72,8.7,2.87-.11,5.81,1.85,9.62,3.19Z"/>
  <path class="cls-5" d="M383.55,383.59c7.43-9.37,13.63-17.1,19.71-24.93,1.56-2,3.18-4.16,3.97-6.51,1.07-3.18.4-6.28-2.93-8.12-2.72-1.5-5.52-1.66-8.11.17-2.79,1.97-4.41,4.5-2.81,8.06.35.78.88,1.48,1.25,2.25,1.25,2.67-.28,4.57-2.2,5.82-2.93,1.91-4.21-.98-5.24-2.72-3.57-6.04-3.47-11.97,1.54-17.33,5.21-5.58,14.08-6.75,20.41-2.45,6.17,4.2,8.42,9.98,5.64,17.16-2.22,5.72-7.03,9.67-10.46,14.57-.95,1.36-2.6,2.44-1.93,4.42.88,2.58,3.2,1.88,5.09,1.99,1.71.1,3.44.09,5.15,0,3.07-.16,5.02.82,4.88,4.3-.13,3.32-2.45,3.32-4.84,3.32-9.06-.01-18.13,0-29.13,0Z"/>
  <path class="cls-5" d="M209.87,384.31c-6.81-.28-11.86-3.04-14.71-9.1-.93-1.98-2.27-4.63.75-5.91,2.03-.86,4.71-1.09,6.03,1.55,1.05,2.1,2.05,4.07,4.39,5.03,4.27,1.75,8.13,1.25,10.49-2.87,2.34-4.07-.77-6.57-3.81-8.26-3.74-2.08-7.98-3.28-11.73-5.35-5.86-3.23-7.76-8.71-5.64-14.72,2.36-6.69,8.08-9.6,15-9.3,6.63.29,11.35,3.72,13.52,10.18.61,1.81.23,3.56-1.83,4.15-2.36.67-4.79.41-5.94-2.08-1.34-2.89-3.31-4.79-6.49-4.81-2.68-.02-5.18.92-6.24,3.71-1.06,2.8-.15,5.17,2.49,6.55,3.05,1.58,6.19,3.02,9.37,4.33,7.21,2.97,11.56,7.97,9.7,16.01-1.83,7.89-8.04,10.62-15.36,10.89Z"/>
  <path class="cls-3" d="M232.42,277.3c-8.25-1.8-16.42-4.43-21.87-11.83-2.65-3.59-2.5-7.32,2.62-8.61,5.96-1.49,12.02-4.7,18.15-.29,2.85,2.05,5.46.21,8.14-.62,7.64-2.35,20.23-.26,21.67,3.54,1.32,3.48-9.48,13.76-16.54,15.51-3.88.96-7.87,1.49-12.17,2.29Z"/>
  <path class="cls-5" d="M.58,359.26c0-2.86-.58-5.88.13-8.56,1.28-4.85-4.31-12.45,3.79-14.34,13.29-3.1,24.62,1.53,27.71,9.74,2.95,7.85-.69,15.43-9.73,20.29-6.17,3.31-13.79,5.14-13.81,14.46,0,2.7-2.44,2.84-4.48,2.79-2.95-.07-3.76-1.92-3.72-4.61.09-6.59.03-13.18.03-19.77.03,0,.06,0,.09,0ZM8.8,364.89c5.7-2.54,10.27-4.25,13.76-7.7,2.7-2.68,3.24-6.15,1.24-9.46-2.86-4.74-7.74-4.59-12.29-3.93-4.3.63-2.48,4.49-2.64,7.02-.27,4.28-.07,8.58-.07,14.07Z"/>
  <path class="cls-5" d="M468.46,366.14c0,4.59,0,9.18.01,13.77,0,2.46-1.11,3.68-3.63,3.69-2.33,0-4.2-.74-4-3.32.63-7.83-4.73-10.1-10.64-12.44-10.22-4.04-16.3-19.71-11.92-29.68.89-2.03,2.39-2.16,4.16-2.1,2.4.08,3.71,1.23,3.7,3.72-.01,3.44-.07,6.89.01,10.33.08,3.2.39,6.56,3.46,8.35,3.12,1.82,6.51,5.03,10,3.6,2.65-1.09.95-5.2,1.08-7.94.16-3.13.28-5.87,4.46-5.72,4.14.16,3.19,3.29,3.25,5.69.11,4.01.03,8.03.04,12.05Z"/>
  <path class="cls-5" d="M165.65,345.37c6.07.23,7.62,2.7,7.29,7.63-.55,8.29-.19,16.65-.12,24.98.03,3.15-.17,5.87-4.4,5.69-3.72-.16-4.05-2.74-3.74-5.45,1.2-10.68-2.31-21.65,2.05-32.11.69-1.65-.37-2.51-1.09-3.74-1.39-2.38-2.06-5.09,1.59-6.08,1.8-.49,4.31-.97,5.26,1.49,1.42,3.65-1.56,4.25-4,5.16-.47.18-.82.68-2.82,2.43Z"/>
  <path class="cls-4" d="M273.37,467.84c0-2.96.02-5.93.02-8.89,1.98.17,3.96.33,5.93.49,2.26,1.17,4.62,1.5,7.09.8,15.49,6.38,26.79,16.23,28.29,34.18-2.68.41-5.37.96-7.74-.99-2.55-11.89-8.88-20.43-21.08-23.77-1.71-2.5-4.15-1.93-6.54-1.55-1.99-.09-3.98-.18-5.97-.27Z"/>
  <path class="cls-3" d="M196.33,457.72c1,4.7,3.9,4.44,7.32,2.78,16.91,5.18,25.46,17.64,29.64,33.93.55-.08.87.16.94.71-3.61-.07-7.05-.76-10.22-2.54-3.34-10.4-8.62-19.11-19.83-22.61-2.79-2.29-5.74-6.6-7.74.63-1.7-1.5-3.04-3.76-5.9-2.81-1.41-2.63-2.19-5.27-.02-7.92,2.54.87,3.82-1.63,5.83-2.17Z"/>
  <path class="cls-5" d="M224,492.6c3.17,1.79,6.61,2.47,10.22,2.54,4.87,1.02,5.35,3.41,2.17,6.93-.55.03-1.09.09-1.64.19-3.33-.25-6.65-.5-9.98-.75-14.71-5.47-24.88-15.11-28.36-30.89,2.01-7.23,4.96-2.93,7.75-.64,1.96,11.61,8.82,18.93,19.83,22.61Z"/>
</svg>